<?xml version="1.0" encoding="utf-8"?><svg width="20" height="17" xmlns="http://www.w3.org/2000/svg" viewBox="0 0 20 17"><path d="M18.146 17c.242 0 .47-.03.506-.065.037-.037.066-.185.066-.331 0-.146.095-.385.211-.532.197-.248.208-.35.164-1.492-.034-.868-.016-1.212.061-1.18.06.024.282.118.493.207.385.164.385.164.323-.113a55.636 55.636 0 01-.165-.78c-.056-.278-.144-1.184-.196-2.015-.051-.831-.094-2-.096-2.6-.002-.734-.054-1.237-.161-1.55a1.522 1.522 0 00-.5-.72 2.735 2.735 0 00-.812-.38 3.99 3.99 0 01-.932-.412 3.925 3.925 0 00-1.068-.42c-.496-.104-.807-.104-1.719 0-.742.085-1.689.108-2.84.068-.949-.032-1.85-.088-2.003-.124-.239-.057-.27-.102-.22-.325.048-.218.013-.277-.218-.365-.151-.057-.581-.444-.955-.86-.375-.417-.932-.949-1.239-1.182a7.923 7.923 0 00-.976-.637c-.23-.116-.718-.28-1.084-.364-.41-.094-.84-.13-1.118-.092C3.24.795 3.192.776 2.78.4 2.54.179 2.33 0 2.31 0c-.017 0-.032.208-.032.462 0 .375-.054.519-.286.762-.157.164-.391.52-.52.79-.13.27-.514.837-.854 1.26-.514.64-.618.83-.618 1.142 0 .206.056.42.124.474.068.054.262.128.432.164.25.053.37.013.637-.21.18-.15.459-.33.619-.397.16-.068.44-.123.622-.123.183 0 .495-.077.694-.171.362-.172.362-.172.648.17.158.187.381.585.496.883.115.298.276.786.358 1.083.083.297.157.894.167 1.327.011.554.076.916.22 1.228.11.243.364.652.563.908.324.42.37.558.465 1.376.057.5.077 1.067.044 1.26-.033.196.014.668.108 1.076.113.492.149.94.111 1.387-.03.363-.125.794-.21.957-.086.164-.314.417-.507.563-.193.147-.397.35-.452.453-.094.174-.064.184.47.156.54-.028.573-.044.646-.326a.852.852 0 01.377-.472c.264-.154.3-.23.3-.616 0-.242.088-.98.194-1.64.106-.66.231-1.488.277-1.84.084-.638.084-.638.263.148.098.432.285 1.024.416 1.314.13.29.285.821.342 1.18.058.358.077.8.043.982a1.28 1.28 0 01-.341.59c-.154.141-.31.36-.349.484-.066.22-.052.226.46.197.506-.029.53-.043.56-.325a.956.956 0 01.26-.509c.202-.189.219-.264.146-.638-.046-.234-.085-.801-.088-1.26-.003-.46-.047-1.101-.098-1.425-.05-.325-.123-.95-.16-1.39-.066-.799-.066-.799.763-.869a20.65 20.65 0 001.62-.214c.437-.08 1.038-.212 1.338-.295.3-.083.803-.264 1.119-.402.574-.252.574-.252.842-.056.147.108.408.427.58.71.173.282.496 1.076.719 1.764.296.916.404 1.415.404 1.866 0 .339-.072.933-.161 1.32-.116.505-.237.775-.428.953a3.483 3.483 0 00-.448.524c-.18.276-.18.276.403.246.56-.029.59-.043.688-.346.056-.173.195-.416.309-.54.15-.163.284-.617.487-1.65.154-.784.273-1.664.265-1.957-.013-.448.006-.51.117-.393a2.5 2.5 0 01.3.468c.092.182.232.535.312.787.079.25.17.921.203 1.49.059 1.006.054 1.04-.194 1.332-.14.165-.285.42-.322.564-.065.257-.054.264.373.264zm.439-5.785c-.088-.073-.206-.293-.26-.49-.056-.197-.101-.729-.101-1.182 0-.453.053-1.112.118-1.465.11-.592.126-.62.207-.355.048.157.112 1.037.142 1.955.05 1.529.04 1.657-.106 1.537z"/></svg>