<?xml version="1.0" encoding="utf-8"?><svg viewBox="0 0 512 512" xmlns="http://www.w3.org/2000/svg" xmlns:xlink="http://www.w3.org/1999/xlink"><style>:root>svg{display:none}:root>svg:target{display:block}</style><svg viewBox="0 0 20 21" id="arrow" xmlns="http://www.w3.org/2000/svg"><path d="M10 11.477l4.126-4.125 1.178 1.178L10 13.833 4.697 8.53l1.179-1.178L10 11.477z"/></svg><svg viewBox="0 0 24 24" id="check" xmlns="http://www.w3.org/2000/svg"><path d="M10 15.171l9.192-9.192 1.415 1.414L10 18l-6.364-6.364 1.414-1.414 4.95 4.95z"/></svg><svg viewBox="0 0 18 19" id="facebook" xmlns="http://www.w3.org/2000/svg"><path d="M17.719 9.707c0 2.156-.703 4.055-2.11 5.695-1.406 1.618-3.152 2.59-5.238 2.918v-6.082h2.04l.386-2.531H10.37V8.055c0-.89.469-1.336 1.406-1.336h1.09V4.574c-.656-.117-1.3-.176-1.933-.176-.68 0-1.266.13-1.758.387-.469.258-.844.645-1.125 1.16-.281.516-.422 1.125-.422 1.828v1.934H5.414v2.531H7.63v6.082c-2.086-.328-3.832-1.3-5.238-2.918C.984 13.762.28 11.863.28 9.707c0-2.414.844-4.465 2.531-6.152C4.524 1.844 6.587.988 9 .988c2.414 0 4.465.856 6.152 2.567 1.711 1.687 2.567 3.738 2.567 6.152z"/></svg><svg viewBox="0 0 512 512" id="heart" xmlns="http://www.w3.org/2000/svg"><path d="M352.92 80C288 80 256 144 256 144s-32-64-96.92-64c-52.76 0-94.54 44.14-95.08 96.81-1.1 109.33 86.73 187.08 183 252.42a16 16 0 0018 0c96.26-65.34 184.09-143.09 183-252.42-.54-52.67-42.32-96.81-95.08-96.81z"/></svg><svg viewBox="0 0 20 17" id="horse" xmlns="http://www.w3.org/2000/svg"><path d="M18.146 17c.242 0 .47-.03.506-.065.037-.037.066-.185.066-.331 0-.146.095-.385.211-.532.197-.248.208-.35.164-1.492-.034-.868-.016-1.212.061-1.18.06.024.282.118.493.207.385.164.385.164.323-.113a55.636 55.636 0 01-.165-.78c-.056-.278-.144-1.184-.196-2.015-.051-.831-.094-2-.096-2.6-.002-.734-.054-1.237-.161-1.55a1.522 1.522 0 00-.5-.72 2.735 2.735 0 00-.812-.38 3.99 3.99 0 01-.932-.412 3.925 3.925 0 00-1.068-.42c-.496-.104-.807-.104-1.719 0-.742.085-1.689.108-2.84.068-.949-.032-1.85-.088-2.003-.124-.239-.057-.27-.102-.22-.325.048-.218.013-.277-.218-.365-.151-.057-.581-.444-.955-.86-.375-.417-.932-.949-1.239-1.182a7.923 7.923 0 00-.976-.637c-.23-.116-.718-.28-1.084-.364-.41-.094-.84-.13-1.118-.092C3.24.795 3.192.776 2.78.4 2.54.179 2.33 0 2.31 0c-.017 0-.032.208-.032.462 0 .375-.054.519-.286.762-.157.164-.391.52-.52.79-.13.27-.514.837-.854 1.26-.514.64-.618.83-.618 1.142 0 .206.056.42.124.474.068.054.262.128.432.164.25.053.37.013.637-.21.18-.15.459-.33.619-.397.16-.068.44-.123.622-.123.183 0 .495-.077.694-.171.362-.172.362-.172.648.17.158.187.381.585.496.883.115.298.276.786.358 1.083.083.297.157.894.167 1.327.011.554.076.916.22 1.228.11.243.364.652.563.908.324.42.37.558.465 1.376.057.5.077 1.067.044 1.26-.033.196.014.668.108 1.076.113.492.149.94.111 1.387-.03.363-.125.794-.21.957-.086.164-.314.417-.507.563-.193.147-.397.35-.452.453-.094.174-.064.184.47.156.54-.028.573-.044.646-.326a.852.852 0 01.377-.472c.264-.154.3-.23.3-.616 0-.242.088-.98.194-1.64.106-.66.231-1.488.277-1.84.084-.638.084-.638.263.148.098.432.285 1.024.416 1.314.13.29.285.821.342 1.18.058.358.077.8.043.982a1.28 1.28 0 01-.341.59c-.154.141-.31.36-.349.484-.066.22-.052.226.46.197.506-.029.53-.043.56-.325a.956.956 0 01.26-.509c.202-.189.219-.264.146-.638-.046-.234-.085-.801-.088-1.26-.003-.46-.047-1.101-.098-1.425-.05-.325-.123-.95-.16-1.39-.066-.799-.066-.799.763-.869a20.65 20.65 0 001.62-.214c.437-.08 1.038-.212 1.338-.295.3-.083.803-.264 1.119-.402.574-.252.574-.252.842-.056.147.108.408.427.58.71.173.282.496 1.076.719 1.764.296.916.404 1.415.404 1.866 0 .339-.072.933-.161 1.32-.116.505-.237.775-.428.953a3.483 3.483 0 00-.448.524c-.18.276-.18.276.403.246.56-.029.59-.043.688-.346.056-.173.195-.416.309-.54.15-.163.284-.617.487-1.65.154-.784.273-1.664.265-1.957-.013-.448.006-.51.117-.393a2.5 2.5 0 01.3.468c.092.182.232.535.312.787.079.25.17.921.203 1.49.059 1.006.054 1.04-.194 1.332-.14.165-.285.42-.322.564-.065.257-.054.264.373.264zm.439-5.785c-.088-.073-.206-.293-.26-.49-.056-.197-.101-.729-.101-1.182 0-.453.053-1.112.118-1.465.11-.592.126-.62.207-.355.048.157.112 1.037.142 1.955.05 1.529.04 1.657-.106 1.537z"/></svg><svg viewBox="0 0 17 17" id="instagram" xmlns="http://www.w3.org/2000/svg"><path d="M8.875 4.664a4.044 4.044 0 00-4.043 4.043 4.021 4.021 0 004.043 4.043 4.044 4.044 0 004.043-4.043c0-2.215-1.828-4.043-4.043-4.043zm0 6.68a2.633 2.633 0 01-2.637-2.637c0-1.441 1.16-2.602 2.637-2.602a2.596 2.596 0 012.602 2.602c0 1.477-1.16 2.637-2.602 2.637zm5.133-6.82a.945.945 0 00-.95-.95.945.945 0 00-.949.95c0 .527.422.949.95.949.527 0 .949-.422.949-.95zm2.672.949c-.07-1.266-.352-2.391-1.266-3.305C14.5 1.254 13.375.973 12.11.902c-1.3-.07-5.203-.07-6.504 0-1.265.07-2.355.352-3.304 1.266-.914.914-1.196 2.039-1.266 3.305-.07 1.3-.07 5.203 0 6.504.07 1.265.352 2.355 1.266 3.304.949.914 2.039 1.196 3.304 1.266 1.301.07 5.204.07 6.504 0 1.266-.07 2.391-.352 3.305-1.266.914-.949 1.195-2.039 1.266-3.304.07-1.301.07-5.204 0-6.504zm-1.688 7.875c-.246.703-.808 1.23-1.476 1.511-1.055.422-3.516.317-4.641.317-1.16 0-3.621.105-4.64-.317a2.666 2.666 0 01-1.512-1.511c-.422-1.02-.317-3.48-.317-4.641 0-1.125-.105-3.586.317-4.64A2.712 2.712 0 014.234 2.59c1.02-.422 3.48-.317 4.641-.317 1.125 0 3.586-.105 4.64.317.669.246 1.196.808 1.477 1.476.422 1.055.317 3.516.317 4.641 0 1.16.105 3.621-.317 4.64z"/></svg><svg viewBox="0 0 24 24" id="quotes-left" xmlns="http://www.w3.org/2000/svg"><path fill="none" d="M0 0h24v24H0z"/><path d="M4.583 17.321C3.553 16.227 3 15 3 13.011c0-3.5 2.457-6.637 6.03-8.188l.893 1.378c-3.335 1.804-3.987 4.145-4.247 5.621.537-.278 1.24-.375 1.929-.311 1.804.167 3.226 1.648 3.226 3.489a3.5 3.5 0 01-3.5 3.5 3.871 3.871 0 01-2.748-1.179zm10 0C13.553 16.227 13 15 13 13.011c0-3.5 2.457-6.637 6.03-8.188l.893 1.378c-3.335 1.804-3.987 4.145-4.247 5.621.537-.278 1.24-.375 1.929-.311 1.804.167 3.226 1.648 3.226 3.489a3.5 3.5 0 01-3.5 3.5 3.871 3.871 0 01-2.748-1.179z"/></svg><svg viewBox="0 0 64 64" fill-rule="evenodd" clip-rule="evenodd" stroke-linejoin="round" stroke-miterlimit="2" id="quotes-modern-left" xmlns="http://www.w3.org/2000/svg"><path fill="none" d="M-640 0H640v800H-640z"/><path d="M27.194 12v8.025c-2.537.14-4.458.603-5.761 1.39-1.304.787-2.22 2.063-2.749 3.829-.528 1.766-.793 4.292-.793 7.579h9.303v19.145H8.113V33.767c0-7.518 1.612-13.025 4.836-16.522C16.174 13.748 20.922 12 27.194 12zM56 12v8.025c-2.537.14-4.457.586-5.761 1.338-1.304.751-2.247 2.028-2.828 3.829-.581 1.8-.872 4.344-.872 7.631H56v19.145H36.814V33.767c0-7.518 1.603-13.025 4.809-16.522C44.83 13.748 49.622 12 56 12z" fill-rule="nonzero"/></svg><svg viewBox="0 0 64 64" fill-rule="evenodd" clip-rule="evenodd" stroke-linejoin="round" stroke-miterlimit="2" id="quotes-modern-right" xmlns="http://www.w3.org/2000/svg"><path fill="none" d="M-1216 0H64v800h-1280z"/><path d="M36.806 51.968v-8.026c2.537-.14 4.458-.604 5.761-1.391 1.304-.786 2.22-2.063 2.749-3.829.528-1.766.793-4.293.793-7.581h-9.303V11.994h19.081v18.203c0 7.519-1.612 13.028-4.836 16.525-3.225 3.497-7.973 5.246-14.245 5.246zM8 51.968v-8.026c2.537-.14 4.457-.586 5.761-1.338 1.304-.752 2.247-2.029 2.828-3.83.581-1.801.872-4.345.872-7.633H8V11.994h19.186v18.203c0 7.519-1.603 13.028-4.809 16.525C19.17 50.219 14.378 51.968 8 51.968z" fill-rule="nonzero"/></svg><svg viewBox="0 0 24 24" id="quotes-right" xmlns="http://www.w3.org/2000/svg"><path fill="none" d="M0 0h24v24H0z"/><path d="M19.417 6.679C20.447 7.773 21 9 21 10.989c0 3.5-2.457 6.637-6.03 8.188l-.893-1.378c3.335-1.804 3.987-4.145 4.247-5.621-.537.278-1.24.375-1.929.311-1.804-.167-3.226-1.648-3.226-3.489a3.5 3.5 0 013.5-3.5c1.073 0 2.099.49 2.748 1.179zm-10 0C10.447 7.773 11 9 11 10.989c0 3.5-2.457 6.637-6.03 8.188l-.893-1.378c3.335-1.804 3.987-4.145 4.247-5.621-.537.278-1.24.375-1.929.311C4.591 12.322 3.17 10.841 3.17 9a3.5 3.5 0 013.5-3.5c1.073 0 2.099.49 2.748 1.179z"/></svg><svg viewBox="0 0 16 15" id="telegram" xmlns="http://www.w3.org/2000/svg"><path d="M15.75 2.188l-2.39 11.18c-.188.796-.622 1.007-1.301.632l-3.621-2.672-1.758 1.688c-.235.234-.48.351-.739.351l.282-3.691 6.715-6.047c.164-.164.164-.258 0-.281-.141-.047-.293-.012-.458.105L4.184 8.691.598 7.566C.199 7.45.012 7.273.035 7.04c.024-.234.27-.434.738-.598L14.73 1.027c.352-.117.633-.07.844.141.211.187.27.527.176 1.02z"/></svg><svg viewBox="0 0 20 12" id="vk" xmlns="http://www.w3.org/2000/svg"><path d="M19.16.855c-.07.352-.351.926-.844 1.723-.468.797-.902 1.5-1.3 2.11-.399.585-.61.89-.633.914-.14.21-.211.363-.211.457 0 .093.07.257.21.492l.212.246.562.562c.211.211.446.457.703.739.258.28.493.562.703.843.235.258.434.528.598.809.188.281.317.516.387.703.164.586-.07.879-.703.879h-2.075c-.163 0-.304-.023-.421-.07a1.496 1.496 0 01-.387-.246 3.019 3.019 0 01-.387-.387c-.117-.14-.293-.34-.527-.598a21.573 21.573 0 00-.703-.738c-.938-.89-1.63-1.336-2.074-1.336-.282 0-.446.082-.493.246-.046.164-.07.633-.07 1.406.023.375.035.68.035.914 0 .282-.094.493-.281.633-.188.117-.598.176-1.23.176-1.102 0-2.215-.328-3.34-.984-1.125-.657-2.11-1.594-2.954-2.813a23.071 23.071 0 01-2.003-3.2c-.516-1.077-.856-1.897-1.02-2.46C.75 1.312.668.915.668.68c0-.399.234-.598.703-.598h2.074c.258 0 .446.059.563.176.14.117.258.328.351.633.493 1.43 1.09 2.707 1.793 3.832C6.88 5.848 7.43 6.41 7.805 6.41c.14 0 .234-.047.28-.14.071-.118.106-.329.106-.633V2.578a2.819 2.819 0 00-.175-.844c-.094-.234-.188-.398-.282-.492l-.28-.351a.63.63 0 01-.106-.317c0-.094.023-.176.07-.246a.628.628 0 01.176-.176.624.624 0 01.281-.07h3.27c.375 0 .562.258.562.773v4.079c0 .398.105.597.316.597.235 0 .563-.21.985-.633.445-.492.879-1.09 1.3-1.793.422-.703.739-1.289.95-1.757l.316-.668c.164-.399.457-.598.88-.598h2.073c.563 0 .774.258.633.773z"/></svg><svg viewBox="0 0 20 15" id="youtube" xmlns="http://www.w3.org/2000/svg"><path d="M19.336 3.066c.07.282.129.633.176 1.055.07.422.117.844.14 1.266.024.398.035.773.035 1.125.024.351.036.644.036.879v.316c0 2.11-.13 3.668-.387 4.676a2.45 2.45 0 01-.633 1.055 2.437 2.437 0 01-1.09.632c-.445.117-1.289.211-2.531.282-1.242.046-2.379.082-3.41.105h-1.547c-4.008 0-6.504-.129-7.488-.387-.914-.258-1.489-.82-1.723-1.687-.117-.445-.21-1.055-.281-1.828A134.95 134.95 0 01.527 8.55v-.844c0-2.086.13-3.633.387-4.64.117-.422.328-.786.633-1.09a2.437 2.437 0 011.09-.633c.445-.117 1.289-.2 2.531-.246C6.41 1.028 7.547.98 8.578.957h1.547c4.008 0 6.504.129 7.488.387.422.117.785.328 1.09.633.305.304.516.668.633 1.09zM8.156 10.59l5.028-2.883-5.028-2.848v5.73z"/></svg></svg>